<svg width="1080" height="1080" viewBox="0 0 1080 1080" xmlns="http://www.w3.org/2000/svg">
  <style>
    .cls-1 { fill: #fff; stroke: #000; stroke-miterlimit: 10; stroke-width: 4px; }
    .cls-2 { fill: #ff69b4; }
    .cls-3 { fill: #fff; stroke: #000; stroke-width: 3px; }
  </style>
  <rect class="cls-1" x="2" y="2" width="1076" height="1076" rx="10"/>
  <g>
    <path class="cls-2" d="M540 200c-20 0-40 10-50 25-10-15-30-25-50-25-40 0-70 30-70 70 0 30 20 50 50 60v60h140v-60c30-10 50-30 50-60 0-40-30-70-70-70z"/>
    <circle class="cls-3" cx="490" cy="290" r="20"/>
    <circle class="cls-3" cx="590" cy="290" r="20"/>
    <path class="cls-3" d="M540 360c-10 0-20 10-20 20s10 20 20 20 20-10 20-20-10-20-20-20z"/>
    <path class="cls-3" d="M530 420c-20 0-40 10-50 25-10-15-30-25-50-25s-40 10-50 25c-10-15-30-25-50-25s-40 10-50 25v50h300v-50c-10-15-30-25-50-25z"/>
  </g>
  <text x="50%" y="950" dominant-baseline="middle" text-anchor="middle" font-size="30" fill="#000">Unicorn</text>
</svg>
